<svg width="126" height="32" viewBox="0 0 126 32" fill="none" xmlns="http://www.w3.org/2000/svg">
<g clip-path="url(#clip0_4995_24955)">
<path d="M42.3946 19.9554C42.6212 20.3309 42.9385 20.6434 43.3176 20.8642C43.7165 21.096 44.1514 21.2594 44.6043 21.3477C45.0912 21.4459 45.5866 21.4955 46.0833 21.4957C46.4943 21.4935 46.9047 21.4635 47.3117 21.406C47.7201 21.3537 48.1192 21.245 48.4977 21.0831C48.8502 20.9345 49.158 20.6967 49.3908 20.3932C49.635 20.058 49.7588 19.65 49.742 19.2356C49.7571 18.9492 49.6976 18.6637 49.5692 18.4072C49.4408 18.1507 49.248 17.932 49.0096 17.7724C48.4461 17.4084 47.8284 17.1362 47.1794 16.966C46.4471 16.7597 45.6533 16.577 44.7933 16.4101C43.9763 16.2569 43.1769 16.0215 42.4072 15.7076C41.7075 15.4282 41.0813 14.9917 40.5771 14.4319C40.0888 13.8859 39.8447 13.1246 39.8447 12.1481C39.8255 11.4586 40.003 10.7779 40.3565 10.1857C40.6897 9.64816 41.1398 9.1927 41.6733 8.8532C42.2334 8.50183 42.8474 8.24484 43.4908 8.09248C44.1466 7.92896 44.8199 7.8454 45.4958 7.84363C46.2912 7.83741 47.0853 7.91075 47.8662 8.06255C48.5478 8.19122 49.1988 8.44831 49.7845 8.82013C50.3458 9.18651 50.8048 9.68943 51.1185 10.2817C51.4761 10.9979 51.6754 11.7827 51.7028 12.5828H49.2144C49.2012 12.1758 49.084 11.779 48.8739 11.4302C48.6638 11.0815 48.3678 10.7923 48.0142 10.5904C47.6715 10.3913 47.2994 10.2477 46.9117 10.1652C46.5124 10.0771 46.1047 10.0328 45.6958 10.0329C45.3181 10.0334 44.9411 10.0634 44.5681 10.1227C44.2089 10.1735 43.8592 10.277 43.5302 10.4298C43.2347 10.5637 42.9744 10.7642 42.7694 11.0157C42.5667 11.2879 42.4638 11.6216 42.4781 11.9607C42.4725 12.1607 42.5099 12.3595 42.5879 12.5438C42.6659 12.728 42.7826 12.8933 42.9301 13.0285C43.2689 13.3326 43.6615 13.5708 44.0877 13.731C44.6016 13.9314 45.131 14.0894 45.6706 14.2035C46.2544 14.3305 46.8403 14.4623 47.4283 14.5988C48.0459 14.7337 48.6562 14.8998 49.2569 15.0965C49.8197 15.2763 50.3531 15.5379 50.8397 15.873C51.2951 16.1918 51.6748 16.6069 51.9517 17.0889C52.2511 17.6461 52.3978 18.2726 52.3769 18.9049C52.3769 19.8247 52.1869 20.5864 51.8068 21.1902C51.4324 21.79 50.9206 22.2921 50.3137 22.6549C49.6724 23.0354 48.9684 23.2984 48.2347 23.4314C47.4774 23.5771 46.708 23.6504 45.9368 23.6503C45.1292 23.654 44.3239 23.5652 43.5365 23.3857C42.8155 23.228 42.1309 22.9352 41.5189 22.5226C40.9294 22.1193 40.4468 21.5788 40.1124 20.9476C39.74 20.2062 39.5412 19.3896 39.5312 18.5599H42.0197C42.0191 19.05 42.1484 19.5316 42.3946 19.9554Z" fill="white"/>
<path d="M63.861 23.3368V20.9349H63.8027C63.3433 21.8026 62.6419 22.5183 61.7835 22.995C60.8877 23.4533 59.8915 23.6801 58.8855 23.6549C57.8901 23.6549 57.0586 23.5226 56.3971 23.2596C55.774 23.0253 55.2199 22.6381 54.7858 22.1335C54.3677 21.6263 54.0718 21.0298 53.9211 20.39C53.7487 19.6566 53.6652 18.9052 53.6723 18.1519V8.19946H56.1608V18.4464C56.1608 19.383 56.4338 20.1254 56.9798 20.6735C57.5258 21.2216 58.2771 21.4946 59.2336 21.4925C59.9093 21.5083 60.5814 21.3889 61.2102 21.1412C61.7453 20.9221 62.222 20.5813 62.6025 20.1458C62.9804 19.7054 63.2644 19.1925 63.4373 18.6386C63.6281 18.027 63.7216 17.3892 63.7145 16.7486V8.19946H66.203V23.3399H63.861V23.3368Z" fill="white"/>
<path d="M70.8326 8.19962V10.6015H70.8909C71.9252 8.76714 73.5653 7.84944 75.8112 7.84839C76.8066 7.84839 77.6361 7.98489 78.2997 8.25789C78.9219 8.50063 79.4747 8.89279 79.9094 9.39976C80.3289 9.90584 80.6244 10.5029 80.7725 11.1433C80.9454 11.8787 81.029 12.6323 81.0213 13.3877V23.3432H78.5344V13.0884C78.5344 12.1529 78.2609 11.411 77.7138 10.8629C77.1668 10.3148 76.4155 10.0418 75.46 10.0439C74.7843 10.0281 74.1123 10.1475 73.4834 10.3952C72.9484 10.6138 72.4717 10.9541 72.0911 11.389C71.7149 11.8309 71.4315 12.3441 71.2579 12.8978C71.0671 13.5095 70.9736 14.1472 70.9807 14.7878V23.3385H68.4922V8.19962H70.8326Z" fill="white"/>
<path d="M94.3459 23.3369V21.2894H94.2876C93.8927 22.1157 93.2027 22.7641 92.3535 23.1069C91.4347 23.4853 90.449 23.6744 89.4555 23.6629C88.3996 23.6868 87.3524 23.4669 86.3953 23.0203C85.5533 22.6107 84.813 22.0189 84.2281 21.2878C83.6381 20.5379 83.1961 19.6827 82.9255 18.7678C82.6276 17.7801 82.4789 16.7534 82.4845 15.7217C82.4792 14.6912 82.6225 13.6653 82.9098 12.6757C83.1689 11.7646 83.6063 10.9139 84.1966 10.173C84.7837 9.45194 85.5248 8.8713 86.3653 8.47358C87.3143 8.03572 88.3507 7.82024 89.3956 7.84358C89.8182 7.84599 90.2398 7.88499 90.6556 7.96014C91.1174 8.04315 91.5689 8.17569 92.0023 8.35546C92.4564 8.54431 92.8846 8.79043 93.2764 9.08784C93.6809 9.39625 94.0234 9.77833 94.286 10.214H94.3459V2.43188H96.8344V23.34H94.3459V23.3369ZM85.3999 17.9645C85.5726 18.6109 85.8607 19.2208 86.2503 19.7648C86.633 20.2938 87.1348 20.7254 87.7151 21.0248C88.3644 21.3508 89.0835 21.513 89.8099 21.4973C90.5101 21.5247 91.2057 21.3729 91.8308 21.0562C92.456 20.7395 92.9899 20.2684 93.382 19.6876C93.7603 19.1336 94.0336 18.5149 94.1884 17.8622C94.3536 17.1815 94.4371 16.4836 94.4372 15.7832C94.4392 15.0578 94.3503 14.335 94.1726 13.6317C94.0146 12.9737 93.7312 12.3523 93.3378 11.8016C92.9499 11.2689 92.4444 10.8329 91.8605 10.5274C91.1797 10.1878 90.4255 10.0217 89.665 10.0439C88.9211 10.0204 88.1841 10.1926 87.5277 10.5431C86.9582 10.8598 86.4756 11.3121 86.1228 11.8598C85.7621 12.4354 85.5066 13.0706 85.3684 13.7357C85.21 14.4488 85.1297 15.1771 85.1289 15.9076C85.1231 16.6025 85.2143 17.2948 85.3999 17.9645V17.9645Z" fill="white"/>
<path d="M112.613 23.2786C112.183 23.5338 111.587 23.6608 110.827 23.6598C110.183 23.6598 109.671 23.4792 109.29 23.118C108.909 22.7568 108.719 22.1667 108.72 21.3477C108.087 22.1301 107.266 22.7392 106.334 23.118C104.775 23.7137 103.073 23.8235 101.451 23.433C100.876 23.2941 100.333 23.0425 99.8557 22.6927C99.3988 22.3521 99.0322 21.905 98.7878 21.3902C98.5082 20.7809 98.3729 20.1152 98.3925 19.4451C98.3925 18.5851 98.5395 17.8822 98.8335 17.3362C99.1099 16.8072 99.5064 16.3503 99.9911 16.0021C100.49 15.6518 101.045 15.3892 101.632 15.2257C102.248 15.0508 102.877 14.9028 103.522 14.7862C104.208 14.6487 104.857 14.5437 105.469 14.4712C106.017 14.4155 106.561 14.3181 107.094 14.1799C107.503 14.0831 107.884 13.8921 108.206 13.6223C108.479 13.3787 108.616 13.0222 108.616 12.5529C108.636 12.0932 108.526 11.6372 108.301 11.2362C108.11 10.9179 107.838 10.6555 107.513 10.4755C107.175 10.2948 106.808 10.1758 106.428 10.1242C106.036 10.0657 105.64 10.0357 105.244 10.0345C104.194 10.0345 103.315 10.235 102.607 10.6361C101.899 11.0372 101.518 11.7969 101.462 12.9151H98.9737C98.9838 12.0904 99.1843 11.2792 99.5596 10.5448C99.8954 9.91678 100.378 9.37916 100.966 8.97764C101.575 8.56786 102.255 8.27468 102.971 8.11297C103.763 7.93187 104.574 7.84308 105.387 7.84837C106.069 7.84738 106.749 7.89634 107.424 7.99485C108.064 8.08204 108.684 8.28483 109.252 8.59334C109.796 8.89337 110.251 9.33253 110.57 9.86595C110.901 10.4093 111.068 11.1259 111.068 11.9969V19.7695C111.054 20.2004 111.088 20.6316 111.17 21.0547C111.24 21.3277 111.469 21.4642 111.857 21.4642C112.115 21.4583 112.37 21.4191 112.618 21.3477V23.2786H112.613ZM108.572 15.5186C108.204 15.7767 107.785 15.9514 107.343 16.0305C106.835 16.1355 106.303 16.2226 105.748 16.2919C105.192 16.3612 104.631 16.4368 104.064 16.5266C103.541 16.6015 103.03 16.7433 102.543 16.9487C102.11 17.1273 101.731 17.4136 101.44 17.7803C101.158 18.1394 101.015 18.6308 101.015 19.2514C101.005 19.6134 101.094 19.9712 101.273 20.2861C101.432 20.5606 101.652 20.7949 101.916 20.9713C102.198 21.153 102.512 21.2816 102.84 21.3508C103.206 21.4304 103.578 21.4695 103.952 21.4674C104.67 21.4842 105.384 21.3706 106.061 21.1319C106.588 20.9413 107.074 20.6545 107.496 20.2861C107.843 19.9798 108.122 19.6042 108.315 19.1836C108.48 18.8317 108.57 18.4493 108.58 18.0607V15.5186H108.572Z" fill="white"/>
<path d="M119.412 25.3574C119.165 26.0013 118.876 26.6279 118.546 27.2333C118.299 27.6935 117.984 28.1132 117.61 28.4775C117.284 28.7909 116.895 29.0305 116.468 29.18C116 29.3328 115.51 29.4068 115.017 29.3989C114.724 29.3986 114.431 29.3786 114.14 29.339C113.85 29.3022 113.565 29.2335 113.29 29.1343V26.8505C113.531 26.9568 113.781 27.0401 114.038 27.0994C114.272 27.1616 114.512 27.1959 114.754 27.2018C115.208 27.2178 115.655 27.0893 116.03 26.8348C116.386 26.5725 116.655 26.2107 116.805 25.7953L117.83 23.2485L111.828 8.18994H114.639L119.061 20.5773H119.119L123.371 8.18994H126.003L119.412 25.3574Z" fill="white"/>
<g clip-path="url(#clip1_4995_24955)">
<path d="M11.0883 31.4797C9.2269 31.4797 7.78003 30.5372 6.90194 28.7549C6.5509 28.0154 6.30006 27.2325 6.15606 26.4267C3.62627 26.3239 1.64977 25.3495 0.571748 23.6668C0.00784904 22.7879 -0.407525 21.2594 0.825545 18.9728C1.06929 18.5259 1.34331 18.0962 1.64569 17.6867C0.166981 15.4237 -0.337344 12.8939 0.305713 10.5461C0.612688 9.44432 1.15912 8.42389 1.90601 7.55768C2.51398 5.64728 3.61321 4.02414 4.88872 3.0571C7.87469 0.790897 11.2409 0.456312 14.688 2.0052C14.9698 1.84199 15.2497 1.69156 15.5277 1.55391C19.8414 -0.562135 23.9209 -0.48624 26.72 1.76772C28.7732 3.42025 29.7394 5.97697 29.1682 8.28316C28.9892 8.99641 28.7334 9.68813 28.4052 10.3462C28.6214 10.5583 28.8287 10.7828 29.0311 11.0088C31.3226 13.5655 32.0505 16.4764 31.0247 18.9923C30.1899 21.0545 28.2395 22.512 25.8256 22.9315C25.3115 24.3784 24.1249 26.1957 21.4401 27.7063C20.0977 28.4619 18.7781 28.6456 17.6642 28.2775C17.5516 28.4122 17.4357 28.5444 17.3157 28.6725C15.655 30.4564 13.3872 31.4797 11.0883 31.4797ZM7.68047 26.9253C7.79388 27.3466 7.94632 27.7564 8.13583 28.1494C8.78868 29.4657 9.75 30.1079 11.0883 30.1079C12.585 30.1079 14.0735 29.5808 15.3213 28.6333C13.3129 29.3922 11.5755 29.5114 10.1507 28.9875C9.13061 28.608 8.30557 27.9193 7.68047 26.9253ZM8.86947 26.2235C9.33082 26.9405 9.91593 27.4302 10.6248 27.6924C12.0937 28.2326 14.0017 27.7854 15.8476 26.9139C15.2837 26.1296 14.9287 25.0516 14.8953 23.7671C13.0724 24.983 11.0229 25.8185 8.86947 26.2235V26.2235ZM18.5284 27.0616C19.1935 27.1481 19.9589 26.9653 20.7668 26.5107C22.4447 25.5657 23.6418 24.389 24.2873 23.0555C24.0244 23.0489 23.7622 23.0252 23.5023 22.9845C22.6699 23.7805 21.7037 24.6237 20.6036 25.5143C19.9593 26.0343 19.2867 26.5182 18.5888 26.9636L18.5284 27.0616ZM16.325 22.7038C16.1292 24.2347 16.4327 25.4898 17.0872 26.2651C17.2463 26.1737 17.4038 26.079 17.5605 25.9836C18.4231 24.3824 18.8417 22.4386 18.7667 20.3127L18.6459 20.3723L18.5504 20.4368C17.8856 21.2644 17.1402 22.0238 16.325 22.7038V22.7038ZM2.51234 18.8438C2.33526 19.1074 2.17613 19.3677 2.0374 19.6256C1.53307 20.5625 1.07036 21.8951 1.73056 22.925C2.5254 24.1654 4.01553 24.9072 5.96674 25.0394C5.86771 23.8043 5.88274 22.5627 6.01162 21.3304C5.09853 21.0765 4.26104 20.6039 3.57159 19.9537C3.19684 19.6048 2.84288 19.2342 2.51153 18.8438H2.51234ZM7.65354 21.5948C7.68655 22.2393 7.76344 22.8809 7.88367 23.515C7.9712 23.9938 8.09422 24.4654 8.25171 24.9259C10.2192 24.6207 12.452 23.7883 14.4734 22.3708C12.4928 22.9568 10.5334 23.0343 9.03513 22.4231C8.53746 22.2153 8.07262 21.9362 7.65517 21.5948H7.65354ZM20.1475 20.6351C20.1695 21.9505 19.9957 23.2618 19.6317 24.5261L19.7362 24.4445C20.5691 23.7704 21.3226 23.1243 21.9966 22.5063C21.1975 22.0949 20.5503 21.4394 20.1491 20.6351H20.1475ZM21.0378 19.0266C21.0492 19.0854 21.0631 19.145 21.0769 19.2037C21.2589 19.9382 21.7486 21.0235 23.0714 21.4748C23.6595 20.891 24.2109 20.2712 24.7223 19.6191C24.5726 18.9275 24.2914 18.2712 23.894 17.6858C23.771 17.503 23.6478 17.3349 23.5243 17.1815C22.7393 17.8529 21.9091 18.4694 21.0394 19.0266H21.0378ZM26.1724 19.9782C26.2274 20.4691 26.226 20.9646 26.1684 21.4552C27.8552 21.0121 29.1519 19.952 29.7533 18.4741C30.5694 16.4634 29.9361 14.0772 28.0094 11.9269C27.9006 11.8088 27.7978 11.697 27.7009 11.5915C27.6258 11.7082 27.5467 11.8257 27.4659 11.9432C27.2365 12.5873 26.9337 13.2029 26.5633 13.7777C27.2978 14.6313 27.6356 15.5886 27.5638 16.625C27.4945 17.6434 27.0399 18.75 26.1741 19.9782H26.1724ZM3.37003 17.7226C3.72074 18.1577 4.10258 18.5668 4.51251 18.9467C4.97154 19.374 5.51581 19.6994 6.10955 19.9014C5.74266 19.3696 5.4268 18.8043 5.16618 18.213C4.71228 17.8933 4.28812 17.5333 3.89883 17.1374C3.7144 17.3311 3.53813 17.5262 3.37003 17.7226ZM24.5403 16.2479C24.7035 16.4462 24.8667 16.6682 25.0357 16.9171C25.2926 17.2992 25.5113 17.7056 25.6885 18.1306C25.9883 17.5468 26.155 17.0131 26.1888 16.5295C26.2347 15.9595 26.0714 15.3923 25.7293 14.9341C25.3575 15.3936 24.9605 15.8322 24.5403 16.2479ZM8.42308 16.5189C8.69157 17.0289 9.20324 17.5259 9.97931 17.8033C10.4641 17.9764 11.2907 18.1363 12.4691 17.9127C10.0209 17.6132 9.1453 16.4356 8.86049 15.4033C8.70952 15.7354 8.56345 16.11 8.42308 16.5189V16.5189ZM10.7252 12.9208C10.3229 13.5125 10.0927 14.0903 10.1148 14.5726C10.1784 15.9509 11.4441 16.6356 13.8687 16.6086C14.9434 16.5964 15.9668 16.1402 16.8489 15.4245C16.7355 15.4653 16.6188 15.5061 16.4988 15.5437C15.7546 15.7811 13.2264 16.4838 11.9509 15.551C11.4809 15.2083 11.2328 14.6958 11.2328 14.069C11.2328 13.6178 11.3903 13.1714 11.6408 12.738C11.331 12.7731 11.0247 12.8342 10.7252 12.9208V12.9208ZM1.4531 11.8249C1.2654 13.3893 1.65711 15.0279 2.56294 16.558C2.7082 16.3948 2.85863 16.2316 3.01422 16.0684C2.49519 15.3312 2.09482 14.5172 1.82767 13.6561C1.64364 13.0593 1.51819 12.446 1.4531 11.8249ZM3.14398 8.2342C2.69596 9.79614 2.61925 11.5605 3.14398 13.2456C3.34398 13.901 3.63634 14.5245 4.01227 15.0973C4.09387 15.0238 4.17548 14.9504 4.25708 14.8778C3.93066 12.0705 4.67654 9.43789 6.38782 7.50627C7.14259 6.66474 8.02357 5.94563 8.99922 5.37472C8.85396 5.39675 8.7087 5.4245 8.56181 5.45632C6.21645 5.96799 4.37297 6.92524 3.14398 8.23746V8.2342ZM13.3292 12.7731C12.8951 13.2407 12.607 13.6969 12.607 14.0658C12.607 14.2935 12.6805 14.3783 12.7605 14.4371C13.2876 14.8223 14.8634 14.6174 16.0794 14.2298C16.1553 14.2053 16.2303 14.18 16.3038 14.1547C15.9107 13.8099 15.4729 13.5198 15.0022 13.2922C14.4725 13.04 13.909 12.8662 13.3292 12.7764V12.7731ZM23.2901 12.5055C23.31 13.1842 23.2367 13.8624 23.0722 14.5211C23.5127 14.189 23.9362 13.8349 24.3412 13.4603C23.987 13.1191 23.6367 12.8012 23.2901 12.5063V12.5055ZM9.38114 6.75386C8.6522 7.21482 7.99061 7.77451 7.41525 8.417C6.15361 9.84021 5.51382 11.7318 5.55707 13.7948C5.73008 13.661 5.90471 13.528 6.08343 13.3958C6.36278 12.4449 6.71584 11.5172 7.13942 10.6212C7.67475 9.26978 8.45328 7.95837 9.38114 6.75386ZM14.5958 11.6608C14.9398 11.7681 15.2756 11.9004 15.6003 12.0566C16.3586 12.4207 17.0471 12.9148 17.6348 13.5166C18.0485 13.2301 18.3211 12.9078 18.4509 12.552C18.6761 11.9277 18.4721 11.1149 17.8453 10.1373C17.7785 10.0327 17.6996 9.93626 17.6103 9.85C17.168 10.0801 16.6367 10.3682 16.0223 10.7183C15.5274 11.0022 15.051 11.317 14.5958 11.6608V11.6608ZM24.027 11.3344C24.4497 11.687 24.8757 12.0702 25.305 12.4843C25.6323 12.1189 25.9393 11.7359 26.2247 11.3369C26.3009 11.0903 26.3579 10.8382 26.3952 10.5828C26.2459 10.5254 26.0876 10.4945 25.9276 10.4914C25.42 10.4759 24.7941 10.7575 24.027 11.3312V11.3344ZM12.0138 8.89031C10.4477 9.61579 9.19671 10.7673 8.4851 11.7955C9.00901 11.4813 9.54599 11.1794 10.0985 10.8913C10.4918 10.4204 10.8925 9.98629 11.2875 9.5856C11.5252 9.34894 11.7673 9.11718 12.0138 8.89031ZM21.7298 7.96571C22.5312 8.18932 22.8209 8.73771 22.9261 9.10004C22.9774 9.28433 23.0013 9.47515 22.9971 9.66639C23.5349 8.17218 23.7855 6.93666 23.6834 6.11407C22.9612 5.715 22.1942 5.40299 21.3985 5.18458C21.2769 5.20987 21.1537 5.23844 21.0206 5.27108C21.3963 6.11416 21.6296 7.01369 21.711 7.93307L21.7298 7.96571ZM25.0389 7.08926C24.9475 7.88462 24.7741 8.66839 24.5215 9.4281C24.9704 9.21952 25.4596 9.11172 25.9545 9.11228C26.0825 9.11464 26.2101 9.12582 26.3365 9.14574C26.1493 8.39986 25.7168 7.71437 25.0389 7.08926ZM24.8847 5.23599C24.9315 5.26645 24.978 5.29746 25.0242 5.32902C26.5796 6.3899 27.3215 7.57482 27.6283 8.66345C27.7104 8.42244 27.7798 8.1866 27.8364 7.95592C28.2673 6.19404 27.4724 4.13838 25.8583 2.84003C23.7928 1.17771 20.828 0.953294 17.5695 2.16841C18.381 2.38674 19.1227 2.81026 19.7231 3.39822L19.7663 3.43983C20.3388 3.52174 20.9062 3.63507 21.4662 3.77932C22.106 3.67486 22.6683 3.66099 23.1228 3.74423C23.9323 3.89112 24.5232 4.35954 24.83 5.09807C24.8504 5.14132 24.8684 5.18866 24.8847 5.23599ZM12.2447 5.60403C11.4055 6.45996 10.6502 7.39426 9.9891 8.39415C10.8515 7.82355 11.8026 7.39997 12.8037 7.14068C13.3838 6.99056 13.9767 6.89548 14.5746 6.85669L14.6986 6.77508C13.9434 6.26485 13.1164 5.87016 12.2447 5.60403V5.60403ZM17.2545 7.07866C17.6282 7.16865 17.9944 7.28761 18.3497 7.43446C18.6969 7.57591 19.03 7.74997 19.3444 7.95429C19.5583 7.93307 19.7712 7.91539 19.9834 7.90125C19.5764 7.3966 19.1373 6.91876 18.6687 6.47069C18.5871 6.38908 18.5006 6.30748 18.4149 6.22587C17.9824 6.42907 17.5369 6.65675 17.0848 6.90973C17.1411 6.96849 17.1982 7.02316 17.2553 7.07866H17.2545ZM14.2351 4.91936C14.8359 5.22089 15.4093 5.57422 15.9488 5.97534C16.3952 5.71257 16.8399 5.46938 17.2782 5.24905C17.0295 5.04775 16.7744 4.85217 16.5127 4.6623C15.7499 4.69655 14.9903 4.78243 14.2392 4.91936H14.2351ZM10.531 2.42302C8.96903 2.42302 7.34833 2.92 5.7211 4.15307C5.22451 4.54035 4.7895 5.00067 4.43091 5.51834C5.4518 4.9471 6.7118 4.45175 8.2664 4.11064C9.444 3.85147 10.663 3.84313 11.844 4.08616C12.0807 3.87235 12.3195 3.67187 12.5605 3.48472L12.6593 3.40964C12.8698 3.2399 13.0828 3.07669 13.2958 2.92C12.4091 2.59847 11.4741 2.43041 10.531 2.42302V2.42302Z" fill="#FF17E9"/>
</g>
</g>
<defs>
<clipPath id="clip0_4995_24955">
<rect width="126" height="31.5" fill="white"/>
</clipPath>
<clipPath id="clip1_4995_24955">
<rect width="31.5" height="31.5" fill="white"/>
</clipPath>
</defs>
</svg>
